[b]Barb Wire (1996) - Tamil Dubbed - DVDRip - 450MB - Team MJY - MovieJockeY.CoM[/b]

[img]http://www.moviegoods.com/Assets/product_images/1020/189643.1020.A.jpg[/img]

Movie Title: Barb Wire (1996)

Runtime: 98 min

Genre: Action | Sci-Fi

Released Date: 3 May 1996 (USA)

IMDB Ratting: 3.2/10

IMDB Link: http://www.imdb.com/title/tt0115624/

Post-Apocalyptic remake of "Casablanca" set in a strip club. 

Director: David Hogan

Writers: Chris Warner (characters in comic), Ilene Chaiken (story), and 2 more credits

Stars: Pamela Anderson, Amir Aboulela and Adriana Alexander

File Name: Barb Wire (1996) - Tamil Dubbed - 450MB - Team MJY - MovieJockeY.CoM
General

Format : DivX
Format/Info : Hack of AVI
File size : 454 MiB
Duration : 1h 32mn
Overall bit rate : 684 Kbps

Video #0

ID : 0
Format : MPEG-4 Visual
Format settings, BVOP : Yes
Format settings, QPel : No
Format settings, GMC : No warppoints
Format settings, Matrix : Default (H.263)
Muxing mode : Packed bitstream
Codec ID : DX50
Codec ID/Hint : DivX 5
Duration : 1h 32mn
Bit rate : 547 Kbps
Width : 384 pixels
Height : 288 pixels
Display aspect ratio : 4:3
Frame rate : 25.000 fps
Resolution : 24 bits
Colorimetry : 4:2:0
Scan type : Progressive
Bits/(Pixel*Frame) : 0.198
Stream size : 363 MiB (80%)
Title : Video 
Writing library : DivX 2151

Audio #1

ID : 1
Format : MPEG Audio
Format version : Version 1
Format profile : Layer 3
Codec ID : 55
Codec ID/Hint : MP3
Duration : 1h 32mn
Bit rate mode : Constant
Bit rate : 128 Kbps
Channel(s) : 2 channels
Sampling rate : 48.0 KHz
Resolution : 16 bits
Stream size : 84.9 MiB (19%)
Alignment : Split accross interleaves
Interleave, duration : 40 ms (1.00 video frame)
Interleave, preload duration : 500 ms
Title : Audio

[IMG]http://img191.imageshack.us/img191/2916/vlcsnap2011.png[/IMG]
[IMG]http://img841.imageshack.us/img841/1530/vlcsnap20111.png[/IMG]
[IMG]http://img62.imageshack.us/img62/8503/vlcsnap20112.png[/IMG]
[IMG]http://img405.imageshack.us/img405/1774/vlcsnap20114.png[/IMG]
[IMG]http://img339.imageshack.us/img339/5088/vlcsnap20113.png[/IMG]

Credits: vijayzxc

I’m Just Doing My Best To Share The Source Available On Net